<svg width="57" height="58" viewBox="0 0 57 58" fill="none" xmlns="http://www.w3.org/2000/svg">
<path d="M15.4375 9.66667C12.1583 9.66667 9.5 12.3716 9.5 15.7083V16.9167C9.5 18.2514 8.43668 19.3333 7.125 19.3333C5.81332 19.3333 4.75 18.2514 4.75 16.9167V15.7083C4.75 9.70224 9.53496 4.83333 15.4375 4.83333H16.625C17.9367 4.83333 19 5.91531 19 7.25C19 8.58469 17.9367 9.66667 16.625 9.66667H15.4375Z" fill="black"/>
<path fill-rule="evenodd" clip-rule="evenodd" d="M26.0296 14.5C24.4482 14.5 23.1193 14.4999 22.0319 14.5903C20.8949 14.6849 19.8144 14.8901 18.7887 15.4219C17.2246 16.2328 15.953 17.5268 15.156 19.1183C14.6334 20.162 14.4317 21.2615 14.3388 22.4184C14.2965 22.9451 14.2743 23.5274 14.2627 24.1667H9.5C8.18832 24.1667 7.125 25.2486 7.125 26.5833C7.125 27.918 8.18832 29 9.5 29H47.5C48.8117 29 49.875 27.918 49.875 26.5833C49.875 25.2486 48.8117 24.1667 47.5 24.1667H42.7373C42.7257 23.5274 42.7035 22.9451 42.6612 22.4184C42.5683 21.2615 42.3666 20.162 41.844 19.1183C41.047 17.5268 39.7754 16.2328 38.2113 15.4219C37.1856 14.8901 36.1051 14.6849 34.9681 14.5903C33.8807 14.4999 32.5518 14.5 30.9704 14.5H26.0296ZM37.9865 24.1667C37.9763 23.6454 37.9584 23.2027 37.927 22.812C37.8581 21.954 37.7363 21.5613 37.6117 21.3126C37.2702 20.6305 36.7252 20.076 36.0548 19.7284C35.8104 19.6017 35.4246 19.4777 34.5813 19.4076C33.7104 19.3352 32.5768 19.3333 30.875 19.3333H26.125C24.4232 19.3333 23.2896 19.3352 22.4187 19.4076C21.5754 19.4777 21.1896 19.6017 20.9452 19.7284C20.2748 20.076 19.7298 20.6305 19.3883 21.3126C19.2637 21.5613 19.1419 21.954 19.073 22.812C19.0416 23.2027 19.0237 23.6454 19.0135 24.1667H37.9865Z" fill="black"/>
<path d="M33.4298 43.5001L26.0296 43.5C24.4484 43.5 23.1192 43.5001 22.0319 43.4097C20.8949 43.3151 19.8144 43.1099 18.7887 42.5781C17.2246 41.7672 15.953 40.4732 15.156 38.8817C15.0689 38.7078 15.0225 38.6268 14.9624 38.5219C14.9252 38.4569 14.8827 38.3827 14.822 38.2715C14.6596 37.9742 14.4838 37.5997 14.3789 37.0764C14.2931 36.649 14.2713 36.1977 14.2608 35.7545C14.25 35.2973 14.25 34.6845 14.25 33.8717V33.8333C14.25 32.4986 15.3133 31.4167 16.625 31.4167C17.9367 31.4167 19 32.4986 19 33.8333C19 34.6933 19.0002 35.2467 19.0094 35.6384C19.0138 35.8223 19.0199 35.9407 19.0249 36.0134C19.1024 36.1497 19.2525 36.4162 19.3883 36.6874C19.7298 37.3695 20.2748 37.924 20.9452 38.2716C21.1896 38.3983 21.5754 38.5223 22.4187 38.5924C23.2896 38.6648 24.4232 38.6667 26.125 38.6667H33.25C34.444 38.6667 34.7644 38.6592 34.9948 38.622C36.5192 38.3764 37.7147 37.1599 37.9561 35.6087C37.9926 35.3743 38 35.0482 38 33.8333C38 32.4986 39.0633 31.4167 40.375 31.4167C41.6867 31.4167 42.75 32.4986 42.75 33.8333L42.7501 34.0163C42.7505 34.9587 42.7508 35.7023 42.6477 36.3648C42.0843 39.9841 39.2947 42.8226 35.7379 43.3959C35.0867 43.5008 34.3561 43.5005 33.4298 43.5001Z" fill="black"/>
<path d="M52.25 41.0833C52.25 39.7486 51.1867 38.6667 49.875 38.6667C48.5633 38.6667 47.5 39.7486 47.5 41.0833V42.2917C47.5 45.6284 44.8417 48.3333 41.5625 48.3333H40.375C39.0633 48.3333 38 49.4153 38 50.75C38 52.0847 39.0633 53.1667 40.375 53.1667H41.5625C47.465 53.1667 52.25 48.2978 52.25 42.2917V41.0833Z" fill="black"/>
<path d="M38 7.25C38 5.91531 39.0633 4.83333 40.375 4.83333H41.5625C47.465 4.83333 52.25 9.70224 52.25 15.7083V16.9167C52.25 18.2514 51.1867 19.3333 49.875 19.3333C48.5633 19.3333 47.5 18.2514 47.5 16.9167V15.7083C47.5 12.3716 44.8417 9.66667 41.5625 9.66667H40.375C39.0633 9.66667 38 8.58469 38 7.25Z" fill="black"/>
<path d="M9.5 41.0833C9.5 39.7486 8.43668 38.6667 7.125 38.6667C5.81332 38.6667 4.75 39.7486 4.75 41.0833V42.2917C4.75 48.2978 9.53496 53.1667 15.4375 53.1667H16.625C17.9367 53.1667 19 52.0847 19 50.75C19 49.4153 17.9367 48.3333 16.625 48.3333H15.4375C12.1583 48.3333 9.5 45.6284 9.5 42.2917V41.0833Z" fill="black"/>
</svg>
